<svg xmlns="http://www.w3.org/2000/svg" viewBox="0 0 128 128" width="128" height="128">
  <defs>
    <radialGradient id="bgGlow" cx="50%" cy="80%" r="60%">
      <stop offset="0%" stop-color="#ff2200" stop-opacity="0.4"/>
      <stop offset="100%" stop-color="#0a0000" stop-opacity="0"/>
    </radialGradient>
    <linearGradient id="flame1" x1="0%" y1="100%" x2="0%" y2="0%">
      <stop offset="0%" stop-color="#ff1a00"/>
      <stop offset="50%" stop-color="#ff6600"/>
      <stop offset="100%" stop-color="#ffcc00" stop-opacity="0.6"/>
    </linearGradient>
    <linearGradient id="flame2" x1="0%" y1="100%" x2="0%" y2="0%">
      <stop offset="0%" stop-color="#cc0000"/>
      <stop offset="55%" stop-color="#ff4400"/>
      <stop offset="100%" stop-color="#ff9900" stop-opacity="0.5"/>
    </linearGradient>
    <linearGradient id="flame3" x1="0%" y1="100%" x2="0%" y2="0%">
      <stop offset="0%" stop-color="#ff2200"/>
      <stop offset="60%" stop-color="#ff8800"/>
      <stop offset="100%" stop-color="#ffee00" stop-opacity="0.4"/>
    </linearGradient>
    <linearGradient id="coreGrad" x1="0%" y1="100%" x2="0%" y2="0%">
      <stop offset="0%" stop-color="#ff4400"/>
      <stop offset="40%" stop-color="#ffaa00"/>
      <stop offset="100%" stop-color="#ffffff" stop-opacity="0.8"/>
    </linearGradient>
    <filter id="blur1">
      <feGaussianBlur stdDeviation="1.5"/>
    </filter>
    <filter id="blur2">
      <feGaussianBlur stdDeviation="2.5"/>
    </filter>
  </defs>


  <!-- Outer flame glow (blurred) -->
  <g filter="url(#blur2)" opacity="0.5">
    <path d="M64 110 C40 110 22 92 22 72 C22 58 30 50 36 44 C34 56 38 62 44 60 C38 50 40 34 50 22 C48 36 54 42 56 38 C54 28 60 16 64 10 C68 16 74 28 72 38 C74 42 80 36 78 22 C88 34 90 50 84 60 C90 62 94 56 92 44 C98 50 106 58 106 72 C106 92 88 110 64 110Z" fill="url(#flame1)"/>
  </g>

  <!-- Back flames -->
  <path d="M44 108 C30 104 20 90 22 74 C22 62 28 54 34 46 C33 56 36 64 42 62 C36 52 38 36 46 24 C45 36 50 44 54 40 C52 30 57 18 62 12 C60 26 65 36 68 32 C68 22 74 14 78 18 C74 30 78 42 80 38 C86 28 88 14 90 20 C86 34 90 48 84 58 C90 60 94 52 94 42 C100 50 106 62 106 74 C108 90 98 106 84 110Z" fill="url(#flame2)" opacity="0.85"/>

  <!-- Mid flames -->
  <path d="M50 108 C38 102 30 88 32 74 C32 64 38 56 42 50 C41 60 44 68 50 66 C44 56 47 42 54 32 C53 44 58 52 62 48 C60 38 64 24 66 18 C68 28 66 40 70 44 C72 34 76 22 80 28 C76 40 80 54 74 62 C80 60 84 52 82 42 C88 52 92 64 90 76 C88 94 76 110 64 110Z" fill="url(#flame1)" opacity="0.9"/>

  <!-- Core flame -->
  <path d="M58 108 C48 102 44 90 46 78 C46 70 50 64 54 58 C53 66 56 72 60 70 C56 62 58 50 64 42 C66 50 64 60 68 64 C72 56 70 44 74 50 C78 60 76 74 72 80 C76 76 78 68 76 60 C82 68 82 82 78 92 C74 104 68 110 64 110Z" fill="url(#flame3)" opacity="0.95"/>

  <!-- Bright inner core -->
  <path d="M62 106 C56 98 55 88 58 80 C58 74 62 68 64 64 C66 68 70 74 70 80 C73 88 72 98 66 106Z" fill="url(#coreGrad)" opacity="0.9"/>

  <!-- Hot tip glow -->
  <ellipse cx="64" cy="62" rx="4" ry="6" fill="#ffffff" opacity="0.5" filter="url(#blur1)"/>

  <!-- Base ember glow -->
  <ellipse cx="64" cy="108" rx="28" ry="5" fill="#ff2200" opacity="0.6" filter="url(#blur2)"/>
</svg>
